<svg xmlns="http://www.w3.org/2000/svg" xmlns:xlink="http://www.w3.org/1999/xlink" width="2380" zoomAndPan="magnify" viewBox="0 0 1784.88 1784.99993" height="2380" preserveAspectRatio="xMidYMid meet" version="1.2"><defs><clipPath id="214d03b57a"><path d="M 1139 1618 L 1334 1618 L 1334 1784.9375 L 1139 1784.9375 Z M 1139 1618 "/></clipPath><clipPath id="3867a9bc5c"><path d="M 143.234375 874 L 1116 874 L 1116 1666 L 143.234375 1666 Z M 143.234375 874 "/></clipPath></defs><g id="fc322756f1"><path style=" stroke:none;fill-rule:nonzero;fill:#f7976b;fill-opacity:1;" d="M 748.777344 563.085938 C 753.519531 587.890625 760.085938 613.554688 776.894531 632.355469 C 797.746094 655.664062 831.398438 664.25 862.5625 661.433594 C 893.726562 658.648438 923.035156 645.914062 951.179688 632.289062 C 976.445312 620.050781 1001.609375 606.753906 1022.296875 587.789062 C 1042.984375 568.789062 1059.03125 543.390625 1061.582031 515.4375 C 1064.898438 479.296875 1076.433594 428.695312 1075.972656 377.402344 C 1075.539062 326.105469 1064.964844 273.980469 1038.640625 229.949219 C 1012.316406 185.914062 969.050781 150.734375 918.722656 140.851562 C 868.363281 130.9375 811.835938 149.375 782.097656 191.1875 C 766.21875 213.5 758.558594 240.589844 752.722656 267.382812 C 746.65625 295.167969 742.214844 323.289062 739.429688 351.605469 C 738.632812 359.527344 737.96875 367.453125 737.441406 375.414062 C 733.230469 438.113281 737.007812 501.347656 748.777344 563.085938 Z M 748.777344 563.085938 "/><path style=" stroke:none;fill-rule:nonzero;fill:#191818;fill-opacity:1;" d="M 811.734375 506.621094 C 813.273438 506.621094 814.644531 505.53125 814.953125 503.964844 C 815.300781 502.183594 814.136719 500.460938 812.359375 500.113281 C 806.390625 498.945312 800.222656 497.742188 795.199219 494.628906 C 790.128906 491.492188 787.054688 486.472656 787.367188 481.84375 C 787.777344 475.847656 793.257812 471.085938 798.566406 466.480469 L 799.785156 465.417969 C 813.015625 453.84375 822.628906 440.015625 827.585938 425.425781 C 833.183594 408.957031 832.714844 391.160156 826.300781 376.609375 C 825.566406 374.949219 823.621094 374.203125 821.972656 374.925781 C 820.3125 375.660156 819.558594 377.597656 820.292969 379.257812 C 826.054688 392.324219 826.445312 408.378906 821.367188 423.3125 C 816.785156 436.808594 807.824219 449.65625 795.464844 460.472656 L 794.257812 461.519531 C 788.234375 466.75 781.40625 472.675781 780.816406 481.402344 C 780.34375 488.429688 784.628906 495.808594 791.742188 500.214844 C 797.785156 503.957031 804.859375 505.339844 811.101562 506.558594 C 811.3125 506.601562 811.523438 506.621094 811.734375 506.621094 Z M 811.734375 506.621094 "/><path style=" stroke:none;fill-rule:nonzero;fill:#191818;fill-opacity:1;" d="M 833.105469 568.300781 C 847.523438 568.300781 861.933594 564.894531 874.8125 558.007812 C 876.410156 557.152344 877.015625 555.164062 876.160156 553.5625 C 875.304688 551.964844 873.316406 551.359375 871.714844 552.21875 C 846.152344 565.882812 812.628906 564.46875 788.304688 548.710938 C 786.78125 547.71875 784.75 548.160156 783.765625 549.675781 C 782.777344 551.199219 783.214844 553.234375 784.734375 554.21875 C 799.160156 563.570312 816.132812 568.300781 833.105469 568.300781 Z M 833.105469 568.300781 "/><path style=" stroke:none;fill-rule:nonzero;fill:#191818;fill-opacity:1;" d="M 916.636719 450.976562 C 921.726562 450.976562 926.804688 450.21875 931.632812 448.65625 C 933.355469 448.101562 934.304688 446.253906 933.746094 444.523438 C 933.1875 442.800781 931.34375 441.851562 929.613281 442.410156 C 915.84375 446.855469 899.722656 443.792969 888.542969 434.601562 C 887.144531 433.445312 885.066406 433.648438 883.921875 435.054688 C 882.769531 436.457031 882.972656 438.523438 884.375 439.675781 C 893.316406 447.027344 905.011719 450.976562 916.636719 450.976562 Z M 916.636719 450.976562 "/><path style=" stroke:none;fill-rule:nonzero;fill:#191818;fill-opacity:1;" d="M 789.332031 421.996094 C 792.5625 421.996094 795.792969 421.664062 798.972656 420.988281 C 800.746094 420.609375 801.878906 418.867188 801.503906 417.09375 C 801.121094 415.320312 799.371094 414.199219 797.605469 414.5625 C 785.988281 417.046875 773.449219 414.144531 764.082031 406.808594 C 762.65625 405.6875 760.59375 405.941406 759.472656 407.371094 C 758.355469 408.796875 758.605469 410.863281 760.035156 411.976562 C 768.351562 418.492188 778.824219 421.996094 789.332031 421.996094 Z M 789.332031 421.996094 "/><path style=" stroke:none;fill-rule:nonzero;fill:#191818;fill-opacity:1;" d="M 970.753906 408.625 C 960.238281 396.929688 944.527344 391.464844 929.21875 387.875 C 913.90625 384.289062 898.023438 382.03125 883.996094 374.925781 C 880.082031 372.941406 876.15625 370.390625 874.257812 366.4375 C 872.355469 362.480469 873.367188 356.859375 877.355469 355.039062 C 879.398438 354.109375 881.753906 354.3125 883.980469 354.5625 C 900.679688 356.441406 917.195312 359.925781 933.226562 364.957031 C 943.425781 368.160156 953.714844 372.15625 961.535156 379.445312 C 969.355469 386.738281 974.257812 398.015625 970.753906 408.625 Z M 970.753906 408.625 "/><path style=" stroke:none;fill-rule:nonzero;fill:#191818;fill-opacity:1;" d="M 970.753906 411.90625 C 970.976562 411.90625 971.203125 411.886719 971.425781 411.835938 C 972.570312 411.597656 973.503906 410.765625 973.867188 409.652344 C 977.429688 398.882812 973.464844 386.082031 963.773438 377.042969 C 955.308594 369.148438 944.074219 364.917969 934.207031 361.824219 C 918 356.738281 901.226562 353.199219 884.347656 351.300781 C 882.203125 351.066406 878.964844 350.695312 875.992188 352.054688 C 873.605469 353.140625 871.757812 355.210938 870.792969 357.878906 C 869.636719 361.066406 869.828125 364.800781 871.296875 367.859375 C 873.726562 372.914062 878.566406 375.855469 882.511719 377.851562 C 893.878906 383.613281 906.398438 386.289062 918.507812 388.875 C 921.839844 389.589844 925.167969 390.300781 928.46875 391.074219 C 941.496094 394.125 957.800781 399.132812 968.3125 410.820312 C 968.941406 411.519531 969.832031 411.90625 970.753906 411.90625 Z M 881 357.636719 C 881.796875 357.636719 882.679688 357.722656 883.617188 357.828125 C 900.074219 359.675781 916.4375 363.128906 932.242188 368.089844 C 941.871094 371.109375 951.808594 374.867188 959.296875 381.847656 C 964.125 386.351562 968.832031 393.851562 968.617188 401.949219 C 957.203125 392.078125 942.210938 387.550781 929.96875 384.679688 C 926.625 383.898438 923.253906 383.175781 919.878906 382.453125 C 908.179688 379.953125 896.082031 377.367188 885.480469 371.996094 C 882.460938 370.464844 878.792969 368.289062 877.21875 365.011719 C 876.515625 363.554688 876.417969 361.632812 876.96875 360.117188 C 877.21875 359.414062 877.734375 358.480469 878.71875 358.03125 C 879.355469 357.738281 880.128906 357.636719 881 357.636719 Z M 881 357.636719 "/><path style=" stroke:none;fill-rule:nonzero;fill:#191818;fill-opacity:1;" d="M 737.441406 375.414062 C 745.527344 372.328125 754.414062 371.53125 761.90625 371.265625 C 764.625 371.167969 767.34375 371.132812 770.097656 371.066406 C 780.074219 370.902344 790.386719 370.703125 800.300781 367.886719 C 803.8125 366.890625 808.222656 365.265625 811.039062 361.484375 C 812.765625 359.164062 813.558594 356.046875 813.097656 353.195312 C 812.730469 350.742188 811.472656 348.6875 809.617188 347.359375 C 807.328125 345.703125 804.609375 345.503906 802.820312 345.371094 C 789.191406 344.242188 775.367188 344.476562 761.773438 346 C 754.648438 346.796875 746.625 348.089844 739.429688 351.605469 C 738.632812 359.53125 737.96875 367.453125 737.441406 375.414062 Z M 737.441406 375.414062 "/><path style=" stroke:none;fill-rule:nonzero;fill:#422422;fill-opacity:1;" d="M 767.453125 219.753906 C 795.308594 242.300781 831.738281 228.171875 853.480469 203.199219 C 874.460938 252.828125 945.71875 258.203125 997.667969 241.671875 C 993.710938 272.785156 986.773438 309.5625 1017.800781 330.648438 C 1000.054688 381.003906 1028.152344 440.652344 1078.273438 459.03125 L 1144.480469 442.644531 C 1207.859375 391.585938 1308.519531 250.113281 1222.726562 182.253906 C 1200.203125 63.285156 1059.382812 0.671875 946.320312 35.96875 C 908.527344 16.496094 868.640625 24.132812 834.621094 52.453125 C 797.578125 48.691406 773.71875 73.367188 773.179688 114.839844 C 735.652344 104.367188 710.175781 149.960938 734.757812 179.886719 C 691.71875 187.941406 726.84375 245.96875 757.433594 217.527344 Z M 767.453125 219.753906 "/><path style=" stroke:none;fill-rule:nonzero;fill:#191818;fill-opacity:1;" d="M 952.25 225.085938 C 956.734375 225.085938 961.214844 224.742188 965.65625 224.039062 C 967.445312 223.757812 968.667969 222.074219 968.382812 220.285156 C 968.101562 218.492188 966.398438 217.246094 964.628906 217.554688 C 931.835938 222.722656 896.652344 206.734375 879.015625 178.621094 C 878.054688 177.089844 876.023438 176.617188 874.492188 177.585938 C 872.957031 178.546875 872.492188 180.574219 873.457031 182.109375 C 890.050781 208.578125 921.117188 225.085938 952.25 225.085938 Z M 952.25 225.085938 "/><path style=" stroke:none;fill-rule:nonzero;fill:#191818;fill-opacity:1;" d="M 1101.96875 127.726562 C 1103.589844 127.726562 1105.003906 126.527344 1105.21875 124.875 C 1106.960938 111.789062 1100.761719 98.054688 1089.796875 90.699219 C 1079.910156 84.066406 1066.6875 82.988281 1055.789062 87.671875 C 1054.566406 85.398438 1052.707031 83.410156 1050.320312 81.882812 C 1045.707031 78.921875 1039.503906 77.929688 1034.121094 79.261719 C 1025.246094 81.472656 1018.519531 88.214844 1013.117188 93.632812 C 1011.839844 94.914062 1011.839844 96.992188 1013.125 98.273438 C 1014.40625 99.550781 1016.484375 99.558594 1017.765625 98.269531 C 1022.847656 93.175781 1028.605469 87.402344 1035.703125 85.636719 C 1039.347656 84.730469 1043.6875 85.429688 1046.78125 87.410156 C 1048.300781 88.386719 1050.222656 90.121094 1050.742188 92.859375 C 1050.941406 93.902344 1051.628906 94.785156 1052.59375 95.230469 C 1053.558594 95.671875 1054.683594 95.621094 1055.601562 95.09375 C 1064.933594 89.734375 1077.203125 90.160156 1086.144531 96.152344 C 1095.078125 102.148438 1100.128906 113.34375 1098.710938 124.007812 C 1098.472656 125.808594 1099.734375 127.460938 1101.53125 127.699219 C 1101.679688 127.714844 1101.824219 127.726562 1101.96875 127.726562 Z M 1101.96875 127.726562 "/><path style=" stroke:none;fill-rule:nonzero;fill:#191818;fill-opacity:1;" d="M 1154.425781 338.117188 C 1165.109375 338.121094 1175.660156 333.433594 1182.671875 325.226562 C 1191.28125 315.148438 1193.816406 300.621094 1189.128906 288.21875 C 1188.484375 286.519531 1186.582031 285.671875 1184.898438 286.308594 C 1183.203125 286.949219 1182.347656 288.84375 1182.988281 290.539062 C 1186.785156 300.582031 1184.648438 312.804688 1177.679688 320.960938 C 1170.710938 329.117188 1158.976562 333.132812 1148.464844 330.941406 C 1146.671875 330.5625 1144.949219 331.710938 1144.582031 333.484375 C 1144.210938 335.261719 1145.351562 337 1147.125 337.371094 C 1149.539062 337.871094 1151.984375 338.117188 1154.425781 338.117188 Z M 1154.425781 338.117188 "/><path style=" stroke:none;fill-rule:nonzero;fill:#191818;fill-opacity:1;" d="M 797.167969 150.390625 C 797.785156 150.390625 798.410156 150.21875 798.964844 149.851562 C 800.484375 148.859375 800.902344 146.824219 799.910156 145.304688 C 796.402344 139.964844 796.832031 132.234375 800.90625 127.316406 C 804.980469 122.398438 812.492188 120.550781 818.394531 122.996094 C 819.4375 123.429688 820.628906 123.300781 821.546875 122.652344 C 822.464844 122.003906 822.992188 120.929688 822.9375 119.804688 C 822.710938 115.195312 826.359375 110.617188 830.902344 109.808594 C 835.441406 109.003906 840.449219 112.027344 841.832031 116.429688 C 842.375 118.15625 844.21875 119.121094 845.949219 118.578125 C 847.679688 118.03125 848.640625 116.1875 848.097656 114.460938 C 845.734375 106.941406 837.484375 101.960938 829.746094 103.339844 C 823.464844 104.464844 818.339844 109.613281 816.820312 115.714844 C 809.179688 114.265625 800.867188 117.066406 795.851562 123.128906 C 789.914062 130.292969 789.316406 141.132812 794.417969 148.910156 C 795.050781 149.871094 796.101562 150.390625 797.167969 150.390625 Z M 797.167969 150.390625 "/><path style=" stroke:none;fill-rule:nonzero;fill:#191818;fill-opacity:1;" d="M 1051.46875 227.328125 C 1060.5625 227.328125 1069.550781 221.003906 1073.589844 211.644531 C 1077.808594 201.867188 1076.28125 191.332031 1074.253906 184.21875 C 1073.757812 182.476562 1071.933594 181.460938 1070.195312 181.960938 C 1068.453125 182.457031 1067.441406 184.273438 1067.9375 186.019531 C 1069.671875 192.105469 1071.015625 201.039062 1067.5625 209.039062 C 1064.488281 216.160156 1057.589844 221.171875 1050.808594 220.742188 C 1049.136719 220.636719 1047.453125 222.042969 1047.363281 223.855469 C 1047.269531 225.664062 1048.664062 227.210938 1050.476562 227.304688 C 1050.804688 227.320312 1051.140625 227.328125 1051.46875 227.328125 Z M 1051.46875 227.328125 "/><path style=" stroke:none;fill-rule:nonzero;fill:#f7976b;fill-opacity:1;" d="M 1093.171875 463.714844 C 1090.742188 526.050781 1095.054688 623.46875 1104.378906 687.449219 C 1046.898438 751.878906 990.929688 817.65625 934.152344 881.296875 C 916.699219 879.734375 899.246094 878.175781 881.792969 876.617188 C 884.15625 854.503906 877.09375 832.640625 872.445312 810.894531 C 861.09375 757.839844 863.976562 702.90625 866.910156 648.726562 C 867.1875 643.621094 867.527344 638.292969 870.09375 633.867188 C 874.445312 626.363281 883.722656 623.617188 892.0625 621.253906 C 970.167969 599.097656 1041.714844 519.496094 1093.171875 463.714844 Z M 1093.171875 463.714844 "/><path style=" stroke:none;fill-rule:nonzero;fill:#f5e0cb;fill-opacity:1;" d="M 1096.5625 611.753906 C 1116.117188 612.902344 1128.558594 626.328125 1139.941406 642.269531 C 1151.324219 658.214844 1163.609375 680.25 1182.300781 690.167969 C 1180.21875 694.761719 1179.738281 694.964844 1179.738281 694.964844 C 1179.738281 694.964844 1201.996094 707.871094 1214.421875 718.496094 C 1176.191406 790.039062 1121.917969 851.496094 1068.152344 912.226562 C 1054.199219 927.992188 1039.714844 944.160156 1020.738281 953.269531 C 1003.617188 961.488281 984.21875 963.28125 965.28125 964.667969 C 940.148438 966.511719 914.980469 967.863281 889.792969 968.726562 C 879.300781 969.082031 868.195312 969.214844 859.078125 964.007812 C 852.714844 960.371094 847.992188 954.492188 843.480469 948.714844 C 822.386719 921.675781 802.425781 893.753906 785.703125 863.464844 C 792.96875 817.917969 805.308594 773.183594 822.421875 730.359375 C 831.957031 706.496094 840.164062 682.238281 865.5625 674.820312 C 865.5625 683.023438 864.53125 689.84375 864.402344 696.832031 C 862.878906 779.457031 895.957031 815.21875 910.523438 879.085938 C 907.886719 854.410156 920.304688 830.164062 937.335938 812.113281 C 954.363281 794.0625 975.792969 780.914062 996.074219 766.617188 C 1035.667969 738.714844 1071.707031 705.726562 1100.8125 667 C 1099.074219 644.902344 1098.160156 632.070312 1096.5625 611.753906 Z M 1096.5625 611.753906 "/><path style=" stroke:none;fill-rule:nonzero;fill:#191818;fill-opacity:1;" d="M 1099.988281 672.929688 C 1100.753906 672.929688 1101.519531 672.664062 1102.140625 672.125 C 1110.953125 664.457031 1118.421875 654.914062 1123.738281 644.519531 C 1124.5625 642.910156 1123.921875 640.929688 1122.308594 640.101562 C 1120.699219 639.277344 1118.71875 639.914062 1117.886719 641.53125 C 1112.953125 651.183594 1106.015625 660.046875 1097.832031 667.167969 C 1096.464844 668.359375 1096.320312 670.433594 1097.507812 671.800781 C 1098.160156 672.546875 1099.070312 672.929688 1099.988281 672.929688 Z M 1099.988281 672.929688 "/><path style=" stroke:none;fill-rule:nonzero;fill:#787747;fill-opacity:1;" d="M 1211.132812 715.808594 C 1313.28125 776.273438 1430.925781 850.5 1473.683594 915.488281 C 1510.957031 972.136719 1522.28125 1078.199219 1534.882812 1144.832031 C 1566.84375 1313.808594 1598.800781 1482.785156 1630.757812 1651.761719 C 1637.144531 1685.519531 1641.632812 1725.675781 1616.71875 1749.332031 C 1602.039062 1763.269531 1580.804688 1767.332031 1560.761719 1770.179688 C 1474.808594 1782.382812 1387.277344 1783.414062 1292.609375 1775.667969 C 1054.011719 1775.273438 815.429688 1765.636719 583.769531 1750.847656 C 572.839844 1749.789062 561.90625 1748.730469 542.933594 1744.4375 C 506.898438 1753.597656 468.007812 1739.570312 439.316406 1715.921875 C 410.621094 1692.277344 390.46875 1660.039062 372.152344 1627.679688 C 344.421875 1578.695312 319.6875 1528.019531 309.574219 1472.527344 C 316.222656 1497.042969 338.128906 1516.703125 363.21875 1520.671875 C 388.304688 1524.636719 415.207031 1512.699219 436.03125 1479.375 C 452.503906 1294.671875 493.269531 1112.152344 556.949219 937.996094 C 568.242188 907.109375 580.789062 875.621094 603.535156 851.878906 C 620.121094 834.5625 641.203125 822.363281 661.980469 810.402344 C 712.140625 781.527344 747.28125 763.441406 822.421875 730.359375 C 831.082031 870.554688 922.617188 949.546875 922.617188 949.546875 C 922.617188 949.546875 1141.820312 813.964844 1211.132812 715.808594 Z M 1211.132812 715.808594 "/><path style=" stroke:none;fill-rule:nonzero;fill:#191818;fill-opacity:1;" d="M 1350.882812 1498.46875 C 1351.285156 1498.46875 1351.699219 1498.394531 1352.097656 1498.234375 C 1353.78125 1497.5625 1354.605469 1495.65625 1353.929688 1493.96875 C 1281.417969 1311.824219 1287.484375 1096.945312 1370.160156 919.179688 C 1370.925781 917.535156 1370.214844 915.582031 1368.570312 914.816406 C 1366.917969 914.046875 1364.96875 914.765625 1364.210938 916.410156 C 1280.785156 1095.785156 1274.660156 1312.601562 1347.832031 1496.398438 C 1348.34375 1497.683594 1349.578125 1498.46875 1350.882812 1498.46875 Z M 1350.882812 1498.46875 "/><path style=" stroke:none;fill-rule:nonzero;fill:#191818;fill-opacity:1;" d="M 1303.648438 1319.023438 C 1304.136719 1319.023438 1304.632812 1318.914062 1305.101562 1318.683594 C 1306.726562 1317.878906 1307.394531 1315.910156 1306.589844 1314.285156 C 1277.566406 1255.636719 1265.742188 1187.542969 1273.296875 1122.546875 C 1273.503906 1120.746094 1272.214844 1119.117188 1270.414062 1118.90625 C 1268.601562 1118.683594 1266.980469 1119.988281 1266.777344 1121.789062 C 1259.078125 1188.027344 1271.125 1257.425781 1300.703125 1317.195312 C 1301.277344 1318.351562 1302.441406 1319.023438 1303.648438 1319.023438 Z M 1303.648438 1319.023438 "/><g clip-rule="nonzero" clip-path="url(#214d03b57a)"><path style=" stroke:none;fill-rule:nonzero;fill:#191818;fill-opacity:1;" d="M 1330.65625 1784.265625 C 1331.746094 1784.265625 1332.8125 1783.722656 1333.433594 1782.734375 C 1334.402344 1781.195312 1333.941406 1779.171875 1332.410156 1778.207031 C 1258.695312 1731.777344 1201.042969 1682.851562 1145.464844 1619.5625 C 1144.269531 1618.203125 1142.199219 1618.066406 1140.832031 1619.265625 C 1139.46875 1620.460938 1139.335938 1622.535156 1140.535156 1623.898438 C 1196.542969 1687.679688 1254.640625 1736.980469 1328.90625 1783.757812 C 1329.453125 1784.101562 1330.058594 1784.265625 1330.65625 1784.265625 Z M 1330.65625 1784.265625 "/></g><path style=" stroke:none;fill-rule:nonzero;fill:#191818;fill-opacity:1;" d="M 1583.214844 1623.011719 C 1583.96875 1623.011719 1584.730469 1622.75 1585.351562 1622.21875 C 1586.726562 1621.039062 1586.882812 1618.964844 1585.703125 1617.585938 C 1535.554688 1559.105469 1460.113281 1522.6875 1383.773438 1520.074219 L 1265.296875 1460.214844 C 1263.679688 1459.386719 1261.703125 1460.042969 1260.886719 1461.664062 C 1260.066406 1463.28125 1260.714844 1465.257812 1262.335938 1466.078125 L 1381.460938 1526.265625 C 1381.890625 1526.480469 1382.359375 1526.601562 1382.839844 1526.613281 C 1457.613281 1528.964844 1531.589844 1564.574219 1580.722656 1621.863281 C 1581.371094 1622.621094 1582.289062 1623.011719 1583.214844 1623.011719 Z M 1583.214844 1623.011719 "/><path style=" stroke:none;fill-rule:nonzero;fill:#191818;fill-opacity:1;" d="M 1263.816406 1735.363281 C 1264.234375 1735.363281 1264.664062 1735.28125 1265.074219 1735.113281 C 1341.078125 1703.539062 1388.5 1621.308594 1386.28125 1525.269531 C 1428.320312 1503.203125 1489.300781 1504.300781 1542.324219 1528.242188 C 1543.984375 1528.996094 1545.921875 1528.25 1546.667969 1526.601562 C 1547.414062 1524.949219 1546.679688 1523.003906 1545.027344 1522.257812 C 1489.445312 1497.167969 1425.207031 1496.453125 1381.363281 1520.453125 C 1380.28125 1521.046875 1379.621094 1522.199219 1379.660156 1523.433594 C 1382.523438 1617.597656 1336.558594 1698.304688 1262.554688 1729.046875 C 1260.882812 1729.742188 1260.085938 1731.664062 1260.78125 1733.339844 C 1261.308594 1734.601562 1262.53125 1735.363281 1263.816406 1735.363281 Z M 1263.816406 1735.363281 "/><path style=" stroke:none;fill-rule:nonzero;fill:#191818;fill-opacity:1;" d="M 1228.359375 1709.25 C 1228.835938 1709.25 1229.316406 1709.148438 1229.769531 1708.929688 C 1301.789062 1674.515625 1354.945312 1591.53125 1356.160156 1511.621094 C 1356.1875 1509.808594 1354.742188 1508.316406 1352.929688 1508.289062 L 1352.878906 1508.289062 C 1351.085938 1508.289062 1349.625 1509.722656 1349.59375 1511.519531 C 1348.414062 1589.074219 1296.832031 1669.605469 1226.941406 1703.003906 C 1225.304688 1703.785156 1224.613281 1705.746094 1225.394531 1707.378906 C 1225.957031 1708.558594 1227.136719 1709.25 1228.359375 1709.25 Z M 1228.359375 1709.25 "/><path style=" stroke:none;fill-rule:nonzero;fill:#191818;fill-opacity:1;" d="M 551.75 1750.300781 C 553.421875 1750.300781 554.855469 1749.027344 555.015625 1747.332031 L 568.519531 1606.335938 C 568.691406 1604.53125 567.371094 1602.929688 565.566406 1602.753906 C 563.675781 1602.542969 562.15625 1603.910156 561.984375 1605.710938 L 548.480469 1746.703125 C 548.304688 1748.507812 549.628906 1750.109375 551.433594 1750.285156 C 551.542969 1750.296875 551.648438 1750.300781 551.75 1750.300781 Z M 551.75 1750.300781 "/><path style=" stroke:none;fill-rule:nonzero;fill:#191818;fill-opacity:1;" d="M 398.414062 1650.355469 C 450.492188 1650.355469 501.097656 1622.902344 529.148438 1578.792969 C 530.125 1577.257812 529.671875 1575.230469 528.140625 1574.257812 C 526.601562 1573.289062 524.578125 1573.742188 523.609375 1575.265625 C 495.710938 1619.140625 442.117188 1646.503906 390.203125 1643.550781 C 388.273438 1643.476562 386.839844 1644.824219 386.730469 1646.632812 C 386.625 1648.445312 388.007812 1649.996094 389.816406 1650.105469 C 392.683594 1650.269531 395.554688 1650.355469 398.414062 1650.355469 Z M 398.414062 1650.355469 "/><path style=" stroke:none;fill-rule:nonzero;fill:#191818;fill-opacity:1;" d="M 417.519531 1675.710938 C 471.375 1675.710938 525.113281 1644.964844 552.132812 1598.363281 C 553.042969 1596.792969 552.507812 1594.785156 550.9375 1593.871094 C 549.363281 1592.960938 547.355469 1593.5 546.449219 1595.066406 C 520 1640.6875 466.832031 1670.464844 414.105469 1669.097656 C 412.332031 1669.148438 410.78125 1670.480469 410.738281 1672.296875 C 410.691406 1674.109375 412.125 1675.617188 413.9375 1675.664062 C 415.128906 1675.695312 416.328125 1675.710938 417.519531 1675.710938 Z M 417.519531 1675.710938 "/><path style=" stroke:none;fill-rule:nonzero;fill:#191818;fill-opacity:1;" d="M 842.507812 1763.222656 C 844.101562 1763.222656 845.5 1762.0625 845.75 1760.441406 C 853.746094 1708.589844 858.570312 1655.710938 860.082031 1603.277344 C 860.132812 1601.464844 858.707031 1599.953125 856.894531 1599.898438 C 855.003906 1599.859375 853.566406 1601.273438 853.515625 1603.085938 C 852.011719 1655.25 847.214844 1707.855469 839.261719 1759.4375 C 838.984375 1761.230469 840.210938 1762.910156 842.003906 1763.183594 C 842.175781 1763.210938 842.339844 1763.222656 842.507812 1763.222656 Z M 842.507812 1763.222656 "/><path style=" stroke:none;fill-rule:nonzero;fill:#191818;fill-opacity:1;" d="M 787.660156 1756.160156 C 789.339844 1756.160156 790.773438 1754.878906 790.925781 1753.171875 C 794.878906 1709.480469 795.007812 1665.164062 791.320312 1621.453125 C 791.164062 1619.648438 789.539062 1618.273438 787.773438 1618.460938 C 785.964844 1618.609375 784.625 1620.199219 784.777344 1622.007812 C 788.433594 1665.335938 788.300781 1709.269531 784.386719 1752.582031 C 784.222656 1754.386719 785.558594 1755.984375 787.363281 1756.148438 C 787.460938 1756.160156 787.5625 1756.160156 787.660156 1756.160156 Z M 787.660156 1756.160156 "/><path style=" stroke:none;fill-rule:nonzero;fill:#191818;fill-opacity:1;" d="M 580.953125 1060.359375 L 580.972656 1060.359375 C 582.789062 1060.351562 584.246094 1058.871094 584.238281 1057.058594 C 583.894531 999.914062 588.261719 942.324219 597.21875 885.894531 C 597.503906 884.101562 596.28125 882.417969 594.492188 882.132812 C 592.675781 881.839844 591.019531 883.070312 590.734375 884.859375 C 581.71875 941.648438 577.324219 999.59375 577.671875 1057.097656 C 577.679688 1058.90625 579.148438 1060.359375 580.953125 1060.359375 Z M 580.953125 1060.359375 "/><path style=" stroke:none;fill-rule:nonzero;fill:#f5e0cb;fill-opacity:1;" d="M 1023.890625 995.652344 C 1016.320312 985.078125 1005.9375 976.542969 992.59375 971.105469 C 981.714844 960.4375 967.589844 953.125 951.035156 953.511719 C 919.421875 935.292969 879.878906 942.789062 844.285156 950.8125 C 805.851562 959.472656 612.933594 1013.667969 551.039062 1075.570312 C 491.59375 995.902344 412 931.398438 321.746094 889.757812 C 290.425781 875.304688 255.804688 863.367188 223.230469 871.46875 C 211.703125 868.847656 199.625 868.675781 186.511719 873.007812 C 173.082031 870.117188 158.890625 870.867188 145.746094 878.625 C 212.769531 953.890625 280.617188 1029.898438 363.324219 1087.480469 C 446.035156 1145.0625 546.289062 1183.335938 646.589844 1173.550781 C 710.269531 1167.339844 770.425781 1142.378906 829.242188 1117.1875 C 894.957031 1089.046875 962.484375 1058.789062 1023.890625 995.652344 Z M 1023.890625 995.652344 "/><path style=" stroke:none;fill-rule:nonzero;fill:#191818;fill-opacity:1;" d="M 544.375 1101.496094 C 545.28125 1101.496094 546.179688 1101.121094 546.824219 1100.402344 C 547.941406 1099.148438 547.933594 1097.257812 546.8125 1096.011719 C 466.273438 1006.867188 356.398438 929.378906 229.066406 871.933594 C 227.40625 871.171875 225.46875 871.921875 224.726562 873.574219 C 223.976562 875.226562 224.710938 877.171875 226.367188 877.917969 C 341.046875 929.660156 441.4375 997.714844 518.757812 1075.902344 C 417.671875 1004.066406 303.355469 926.40625 191.023438 871.96875 C 189.386719 871.191406 187.421875 871.859375 186.632812 873.492188 C 185.84375 875.125 186.527344 877.089844 188.15625 877.882812 C 310.347656 937.09375 435.113281 1024.039062 542.464844 1100.886719 C 543.042969 1101.296875 543.707031 1101.496094 544.375 1101.496094 Z M 544.375 1101.496094 "/><path style=" stroke:none;fill-rule:nonzero;fill:#191818;fill-opacity:1;" d="M 544.378906 1101.496094 C 544.988281 1101.496094 545.601562 1101.328125 546.152344 1100.972656 C 606.007812 1062.449219 668.039062 1034.585938 741.371094 1013.296875 C 790.359375 999.074219 840.988281 987.53125 889.949219 976.367188 C 911.59375 971.429688 933.96875 966.324219 955.925781 961.054688 C 957.691406 960.632812 958.777344 958.859375 958.355469 957.097656 C 957.929688 955.332031 956.152344 954.234375 954.394531 954.667969 C 932.476562 959.929688 910.113281 965.03125 888.492188 969.960938 C 839.4375 981.148438 788.714844 992.71875 739.542969 1006.992188 C 665.582031 1028.460938 603 1056.574219 542.597656 1095.453125 C 541.074219 1096.433594 540.632812 1098.46875 541.613281 1099.988281 C 542.242188 1100.964844 543.296875 1101.496094 544.378906 1101.496094 Z M 544.378906 1101.496094 "/><path style=" stroke:none;fill-rule:nonzero;fill:#191818;fill-opacity:1;" d="M 544.378906 1101.496094 C 544.828125 1101.496094 545.289062 1101.40625 545.726562 1101.207031 C 685.835938 1037.949219 850.773438 996.378906 998.242188 987.15625 C 1000.050781 987.042969 1001.425781 985.484375 1001.316406 983.671875 C 1001.203125 981.863281 999.65625 980.484375 997.832031 980.601562 C 849.601562 989.871094 683.828125 1031.648438 543.027344 1095.222656 C 541.371094 1095.964844 540.636719 1097.910156 541.382812 1099.5625 C 541.933594 1100.777344 543.125 1101.496094 544.378906 1101.496094 Z M 544.378906 1101.496094 "/><path style=" stroke:none;fill-rule:nonzero;fill:#f7976b;fill-opacity:1;" d="M 1057.757812 435.488281 C 1063.320312 421.738281 1069.195312 407.730469 1079.210938 396.792969 C 1089.226562 385.855469 1104.351562 378.417969 1118.867188 381.46875 C 1135.535156 384.972656 1146.894531 401.210938 1150.925781 417.765625 C 1157.636719 445.335938 1147.429688 476.320312 1125.648438 494.503906 C 1103.867188 512.6875 1071.558594 517.1875 1045.636719 505.65625 C 1049.195312 479.382812 1050.886719 452.464844 1057.757812 435.488281 Z M 1057.757812 435.488281 "/><path style=" stroke:none;fill-rule:nonzero;fill:#191818;fill-opacity:1;" d="M 1098.210938 489.746094 C 1098.90625 489.746094 1099.609375 489.523438 1100.207031 489.066406 C 1107.382812 483.558594 1112.234375 475.738281 1113.503906 467.621094 C 1114.921875 458.558594 1111.648438 449.074219 1105.164062 443.460938 C 1100.664062 439.566406 1094.6875 437.675781 1089.046875 438.019531 C 1091.929688 433.90625 1095.042969 429.964844 1098.679688 426.628906 C 1104.824219 420.984375 1111.824219 417.882812 1118.410156 417.882812 L 1118.613281 417.882812 C 1126.007812 417.949219 1132.777344 422.4375 1134.71875 428.554688 C 1135.265625 430.28125 1137.09375 431.261719 1138.839844 430.691406 C 1140.566406 430.144531 1141.527344 428.300781 1140.976562 426.574219 C 1138.207031 417.824219 1128.828125 411.410156 1118.675781 411.316406 C 1110.25 411.164062 1101.675781 414.957031 1094.234375 421.792969 C 1087.8125 427.6875 1083.101562 434.921875 1078.550781 441.921875 C 1077.710938 443.210938 1077.875 444.90625 1078.949219 446.003906 C 1080.019531 447.105469 1081.714844 447.3125 1083.023438 446.507812 C 1088.222656 443.304688 1095.894531 444.128906 1100.871094 448.425781 C 1105.679688 452.59375 1108.09375 459.726562 1107.011719 466.601562 C 1106.003906 473.078125 1102.066406 479.363281 1096.210938 483.859375 C 1094.769531 484.960938 1094.5 487.023438 1095.605469 488.460938 C 1096.25 489.304688 1097.222656 489.746094 1098.210938 489.746094 Z M 1098.210938 489.746094 "/><path style=" stroke:none;fill-rule:nonzero;fill:#191818;fill-opacity:1;" d="M 865.15625 667.460938 C 865.285156 667.460938 865.417969 667.457031 865.550781 667.441406 C 966.601562 655.175781 1046.210938 601.308594 1089.722656 515.746094 C 1090.542969 514.128906 1089.898438 512.15625 1088.28125 511.332031 C 1086.679688 510.511719 1084.691406 511.148438 1083.867188 512.769531 C 1041.378906 596.316406 963.566406 648.929688 864.761719 660.917969 C 862.960938 661.140625 861.679688 662.773438 861.898438 664.574219 C 862.097656 666.242188 863.515625 667.460938 865.15625 667.460938 Z M 865.15625 667.460938 "/><g clip-rule="nonzero" clip-path="url(#3867a9bc5c)"><path style=" stroke:none;fill-rule:nonzero;fill:#528fc4;fill-opacity:1;" d="M 1033.921875 990.425781 L 1115.519531 1518.824219 L 700.605469 1656.457031 C 700.605469 1656.457031 685.773438 1665.449219 663.261719 1665.449219 C 640.75 1665.449219 636.292969 1649.542969 636.292969 1649.542969 L 257.335938 1363.902344 L 143.234375 874.925781 L 521.5 1109.386719 L 583.734375 1128.75 Z M 1033.921875 990.425781 "/></g><path style=" stroke:none;fill-rule:nonzero;fill:#191818;fill-opacity:1;" d="M 692.964844 1659.429688 C 693.183594 1659.429688 693.410156 1659.40625 693.632812 1659.363281 C 695.410156 1658.988281 696.550781 1657.25 696.183594 1655.480469 L 587.554688 1133.054688 C 587.1875 1131.277344 585.453125 1130.144531 583.671875 1130.507812 C 581.894531 1130.878906 580.753906 1132.617188 581.125 1134.390625 L 689.75 1656.8125 C 690.074219 1658.363281 691.441406 1659.429688 692.964844 1659.429688 Z M 692.964844 1659.429688 "/><path style=" stroke:none;fill-rule:nonzero;fill:#191818;fill-opacity:1;" d="M 639.679688 1647.386719 C 639.863281 1647.386719 640.054688 1647.371094 640.246094 1647.339844 C 642.03125 1647.027344 643.226562 1645.328125 642.917969 1643.539062 C 611.730469 1464.394531 569.976562 1285.085938 518.808594 1110.589844 C 518.296875 1108.847656 516.480469 1107.851562 514.734375 1108.359375 C 512.992188 1108.871094 511.996094 1110.695312 512.503906 1112.4375 C 563.605469 1286.695312 605.300781 1465.765625 636.445312 1644.667969 C 636.726562 1646.261719 638.109375 1647.386719 639.679688 1647.386719 Z M 639.679688 1647.386719 "/><path style=" stroke:none;fill-rule:nonzero;fill:#f5e0cb;fill-opacity:1;" d="M 1179.394531 696.6875 C 1122.726562 766.597656 1071.824219 841.183594 1023.09375 915.488281 C 1017.832031 868.746094 996.480469 823.96875 963.46875 790.460938 Z M 1179.394531 696.6875 "/><path style=" stroke:none;fill-rule:nonzero;fill:#191818;fill-opacity:1;" d="M 1023.09375 918.773438 C 1024.183594 918.773438 1025.222656 918.226562 1025.835938 917.289062 C 1069.917969 850.078125 1122.933594 771.558594 1181.941406 698.753906 C 1183.085938 697.34375 1182.867188 695.277344 1181.460938 694.136719 C 1180.046875 692.988281 1177.980469 693.214844 1176.84375 694.617188 C 1119.792969 765.003906 1068.371094 840.652344 1025.179688 906.328125 C 1018.292969 861.910156 997.414062 820.234375 965.808594 788.15625 C 964.539062 786.867188 962.460938 786.847656 961.164062 788.125 C 959.875 789.398438 959.859375 791.476562 961.132812 792.769531 C 993.785156 825.90625 1014.628906 869.621094 1019.828125 915.855469 C 1019.984375 917.230469 1020.988281 918.363281 1022.328125 918.683594 C 1022.582031 918.742188 1022.839844 918.773438 1023.09375 918.773438 Z M 1023.09375 918.773438 "/><path style=" stroke:none;fill-rule:nonzero;fill:#f5e0cb;fill-opacity:1;" d="M 882.1875 797.046875 C 852.148438 810.0625 839.453125 832.433594 830.574219 861.894531 C 815.148438 832.058594 811.191406 772.691406 822.421875 730.359375 Z M 882.1875 797.046875 "/><path style=" stroke:none;fill-rule:nonzero;fill:#191818;fill-opacity:1;" d="M 830.574219 865.175781 C 830.671875 865.175781 830.777344 865.171875 830.875 865.164062 C 832.210938 865.039062 833.332031 864.121094 833.714844 862.84375 C 842.292969 834.386719 854.039062 812.820312 883.492188 800.0625 C 885.15625 799.339844 885.917969 797.40625 885.199219 795.742188 C 884.480469 794.082031 882.558594 793.320312 880.882812 794.035156 C 850.757812 807.085938 838.042969 829.449219 830.058594 852.746094 C 817.894531 821.730469 815.644531 768.710938 825.597656 731.199219 C 826.0625 729.445312 825.019531 727.648438 823.265625 727.183594 C 821.527344 726.734375 819.714844 727.761719 819.25 729.515625 C 807.878906 772.375 811.648438 832.4375 827.65625 863.398438 C 828.222656 864.5 829.355469 865.175781 830.574219 865.175781 Z M 830.574219 865.175781 "/><path style=" stroke:none;fill-rule:nonzero;fill:#f7976b;fill-opacity:1;" d="M 309.6875 1472.839844 C 275.367188 1443.871094 241.953125 1413.832031 209.507812 1382.773438 C 201.761719 1375.355469 193.964844 1367.753906 188.605469 1358.464844 C 183.242188 1349.175781 180.53125 1337.835938 184.304688 1324.496094 C 175.753906 1307.496094 174.246094 1287.082031 182.785156 1264.199219 C 176.777344 1248.394531 177.011719 1230.316406 183.585938 1210.941406 C 181.660156 1204.269531 179.714844 1197.46875 179.871094 1190.527344 C 180.03125 1183.582031 182.617188 1176.347656 188.199219 1172.214844 C 196.898438 1165.773438 209.082031 1168.800781 219.390625 1172.097656 C 248.316406 1181.34375 277.238281 1190.585938 306.164062 1199.832031 C 314.925781 1202.632812 324.085938 1205.675781 330.402344 1212.367188 C 336.714844 1219.058594 338.894531 1230.613281 332.230469 1239.902344 C 337.007812 1243.015625 342.46875 1244.894531 347.578125 1247.417969 C 352.691406 1249.945312 357.679688 1253.347656 360.304688 1258.414062 C 362.929688 1263.476562 362.441406 1270.492188 357.945312 1274 C 354.027344 1277.050781 348.535156 1276.675781 343.597656 1276.152344 C 334.226562 1275.160156 324.855469 1274.164062 313.53125 1275.273438 C 332.46875 1281.523438 350.8125 1289.566406 368.238281 1299.265625 C 372.203125 1301.46875 376.214844 1303.839844 379.054688 1307.378906 C 381.898438 1310.914062 383.367188 1315.898438 381.621094 1320.085938 C 378.71875 1327.046875 369.457031 1328.117188 361.917969 1327.972656 C 321.707031 1327.207031 281.691406 1322.421875 244.914062 1319.871094 C 276.277344 1325.832031 307.636719 1331.792969 339 1337.753906 C 344.457031 1338.789062 350.039062 1339.871094 354.832031 1342.6875 C 359.621094 1345.503906 363.550781 1350.4375 363.601562 1355.996094 C 363.660156 1362.320312 358.65625 1367.8125 352.828125 1370.261719 C 347 1372.710938 340.472656 1372.730469 334.152344 1372.585938 C 304.066406 1371.894531 280.71875 1368.953125 257.335938 1363.902344 C 316.691406 1410.332031 358.890625 1438.507812 427.140625 1491.894531 C 408.800781 1515.519531 387.210938 1524.664062 361.824219 1520.429688 C 336.4375 1516.195312 312.519531 1495.378906 309.6875 1472.839844 Z M 309.6875 1472.839844 "/><path style=" stroke:none;fill-rule:nonzero;fill:#191818;fill-opacity:1;" d="M 332.6875 1244.578125 C 333.9375 1244.578125 335.125 1243.867188 335.675781 1242.660156 C 336.429688 1241.011719 335.707031 1239.0625 334.058594 1238.308594 C 293.101562 1219.5625 247.636719 1210.199219 202.601562 1211.289062 C 200.785156 1211.332031 199.351562 1212.835938 199.394531 1214.648438 C 199.4375 1216.457031 201.007812 1217.898438 202.753906 1217.855469 C 246.882812 1216.785156 291.273438 1225.945312 331.328125 1244.28125 C 331.769531 1244.480469 332.234375 1244.578125 332.6875 1244.578125 Z M 332.6875 1244.578125 "/><path style=" stroke:none;fill-rule:nonzero;fill:#191818;fill-opacity:1;" d="M 322.75 1281.761719 C 324.128906 1281.761719 325.414062 1280.882812 325.871094 1279.503906 C 326.433594 1277.78125 325.496094 1275.925781 323.777344 1275.355469 C 285.554688 1262.777344 244.25 1258.882812 204.378906 1264.089844 C 202.582031 1264.324219 201.3125 1265.972656 201.550781 1267.773438 C 201.785156 1269.566406 203.414062 1270.839844 205.230469 1270.601562 C 244.144531 1265.519531 284.425781 1269.320312 321.722656 1281.597656 C 322.0625 1281.707031 322.410156 1281.761719 322.75 1281.761719 Z M 322.75 1281.761719 "/><path style=" stroke:none;fill-rule:nonzero;fill:#191818;fill-opacity:1;" d="M 287.863281 1328.988281 C 289.347656 1328.988281 290.695312 1327.976562 291.054688 1326.46875 C 291.476562 1324.707031 290.386719 1322.933594 288.625 1322.511719 C 276.746094 1319.671875 217.53125 1314.226562 205.542969 1316.066406 C 203.75 1316.34375 202.519531 1318.019531 202.796875 1319.8125 C 203.074219 1321.601562 204.707031 1322.8125 206.542969 1322.558594 C 217.289062 1320.894531 276.15625 1326.28125 287.097656 1328.898438 C 287.355469 1328.960938 287.609375 1328.988281 287.863281 1328.988281 Z M 287.863281 1328.988281 "/><path style=" stroke:none;fill-rule:nonzero;fill:#191818;fill-opacity:1;" d="M 1143.175781 1628.753906 C 1149.140625 1633.128906 1158.625 1631.871094 1169.894531 1626.101562 C 1188.59375 1616.585938 1212.363281 1594.667969 1233.582031 1565.621094 C 1251.984375 1540.453125 1264.746094 1515.054688 1270.019531 1495.226562 C 1274.496094 1478.449219 1273.632812 1465.648438 1266.304688 1460.308594 C 1258.714844 1454.738281 1245.550781 1458.253906 1230.167969 1468.5 C 1213.292969 1479.742188 1193.699219 1499.105469 1175.894531 1523.441406 C 1157.199219 1549.007812 1144.332031 1574.773438 1139.226562 1594.734375 C 1135.015625 1611.078125 1136.011719 1623.515625 1143.175781 1628.753906 Z M 1143.175781 1628.753906 "/><path style=" stroke:none;fill-rule:nonzero;fill:#f7976b;fill-opacity:1;" d="M 806.597656 1378.972656 C 809.945312 1384.144531 815.683594 1387.128906 821.1875 1389.882812 C 874.929688 1416.90625 975.316406 1463.972656 972.667969 1468.601562 C 971.117188 1471.308594 906.789062 1441.277344 872.042969 1425.128906 C 861.667969 1420.289062 839.53125 1407.71875 837.695312 1419.027344 C 835.957031 1429.75 862.152344 1444.660156 875.1875 1454.390625 C 896.914062 1470.605469 921.152344 1483.84375 945.3125 1496.320312 C 1001.707031 1525.398438 1059.558594 1551.726562 1117.546875 1572.21875 C 1123.246094 1578.386719 1130.972656 1586.34375 1139.226562 1594.734375 C 1149.738281 1605.441406 1161.011719 1616.816406 1169.894531 1626.101562 C 1188.59375 1616.585938 1212.363281 1594.667969 1233.582031 1565.621094 C 1251.984375 1540.453125 1264.746094 1515.054688 1270.019531 1495.226562 C 1257.6875 1488.164062 1243.164062 1478.316406 1230.167969 1468.5 C 1220.15625 1460.941406 1211.105469 1453.378906 1204.605469 1447.082031 C 1171.089844 1397.175781 1127.84375 1348.386719 1082.6875 1306.210938 C 1085.171875 1321.730469 1086.671875 1331.925781 1088.4375 1346.28125 C 1008.140625 1322.96875 927.773438 1303.902344 845.453125 1289.117188 C 837.796875 1287.753906 827.949219 1287.390625 824.335938 1294.320312 C 821.914062 1298.964844 823.972656 1304.964844 827.71875 1308.644531 C 831.496094 1312.324219 836.636719 1314.214844 841.574219 1315.972656 C 896.742188 1335.800781 1001.894531 1374.15625 1000.910156 1377.148438 C 999.890625 1380.257812 974.707031 1371.28125 959.136719 1365.84375 C 922.390625 1353.007812 880.417969 1339.207031 838.296875 1328.6875 C 824.257812 1325.183594 798.65625 1316.425781 795.492188 1330.199219 C 792.941406 1341.292969 821.75 1352.167969 831.863281 1356.09375 C 883.679688 1376.222656 986.730469 1423.464844 984.601562 1427.550781 C 982.976562 1430.667969 878.507812 1377.582031 821.980469 1362.296875 C 817.570312 1361.101562 812.566406 1360.140625 808.6875 1362.558594 C 803.449219 1365.808594 803.25 1373.800781 806.597656 1378.972656 Z M 806.597656 1378.972656 "/></g></svg>